<svg xmlns="http://www.w3.org/2000/svg" viewBox="0 0 285 360" enable-background="new 0 0 285 360"><style type="text/css">.st0{fill:#B3B3B3;} .st1{fill:#FFFFFF;}</style><path id="_x23_b3b3b3ff" d="M285 0v360H0V0m60.1 0c0 36.4 0 73.4 0 109.9 54.9 0 109.8 0 164.8 0 0-36.4 0-73.4 0-109.9M7.5 7.5c0 115.7 0 229.3 0 345 90 0 180 0 270 0 0-115.7 0-229.4 0-345-15.2 0-30.3 0-45.5 0-.1 36.5 0 73 0 109.5-59.7 0-119.3 0-179 0 0-36.5 0-73 0-109.5-15.2 0-30.4-.1-45.5 0z" class="st0"/><path id="_x23_ffffffff" d="M224.9 0c0 36.4 0 73.4 0 109.9-54.9 0-109.8 0-164.8 0 0-36.4 0-73.4 0-109.9" class="st1"/></svg>