<svg xmlns="http://www.w3.org/2000/svg" viewBox="0 0 285 360" enable-background="new 0 0 285 360"><style type="text/css">.st0{fill:#B3B3B3;} .st1{fill:#FFFFFF;}</style><path id="_x23_b3b3b3ff" d="M0 0h285v360H0V0m7.5 16c0 82 0 164 0 246 .1 31.1-.3 59.3.2 90.5 89.9-.1 179.8 0 269.7 0 .3-28.5 0-54 .1-82.4-.1-87.5.2-175-.1-262.5-89.9 0-179.8 0-269.8 0-.2 2.8-.2 5.6-.1 8.4zm99.9 29.4c1.8-.4 3.7-.4 5.5-.4 23.3.1 46.7 0 70 .1 5.9-.1 11.5 3.6 13.8 9 1.7 4.1 1.3 8.7 1.1 13.1-.2 7.6-7.3 14.2-14.9 13.9-23.7.1-47.4 0-71 0-5.2.3-10.5-2.2-13.4-6.6-3.2-4.5-2.7-10.3-2.5-15.6.3-6.4 5.3-12.1 11.4-13.5m2 7.2c-3 .6-5.6 3.3-5.8 6.5-.2 3.3-.5 6.7.4 9.9 1.2 3.1 4.6 4.8 7.9 4.6 23.4 0 46.7 0 70 0 3.5.3 7.4-1.9 8.2-5.5.5-3.3.5-6.7 0-10-.9-3.6-4.7-6-8.3-5.6-24 .1-48.2-.3-72.4.1z" class="st0"/><path id="_x23_ffffffff" d="M109.4 52.6c24.1-.4 48.3 0 72.5-.2 3.6-.4 7.4 2 8.3 5.6.5 3.3.5 6.7 0 10-.8 3.6-4.6 5.8-8.2 5.5-23.3 0-46.7 0-70 0-3.2.3-6.6-1.5-7.9-4.6-.9-3.2-.7-6.6-.4-9.9.1-3 2.7-5.7 5.7-6.4z" class="st1"/></svg>