<svg xmlns="http://www.w3.org/2000/svg" width="14" height="14.03"><defs><style>.cls-1{fill:#767676;}</style></defs><title>close</title><g id="Слой_2"><g id="Слой_1-2"><path id="_767676ff" d="M6.9 5.18c1.77-1.7 3.5-3.43 5.2-5.18.64.63 1.27 1.26 1.9 1.9-1.72 1.7-3.4 3.45-5.16 5.1 1.54 1.76 3.28 3.3 4.9 5L12 13.76c-1.63-1.65-3.28-3.28-4.9-4.93C5.32 10.55 3.6 12.3 1.86 14L0 12.13Q2.58 9.53 5.18 7C3.54 5.32 2 3.63.23 2.07A13.17 13.17 0 0 1 2 .2c1.6 1.68 3.27 3.33 4.9 5z" class="cls-1"/></g></g></svg>