<svg xmlns="http://www.w3.org/2000/svg" width="18" height="18.01"><defs><style>.cls-1{fill:#7a7a7a;}</style></defs><title>fb</title><g id="Слой_2"><g id="Слой_1-2"><g id="Слой_2-2"><g id="Слой_1-2-2"><g id="Слой_2-2-2"><g id="Слой_1-2-2-2"><path id="_7a7a7aff" d="M0 2.28A2.3 2.3 0 0 1 2.3 0h13.3A2.4 2.4 0 0 1 18 2.77c0 4.42.08 8.84-.06 13.26-.7 2.82-4.15 1.75-6.22 1.92q0-3.18 0-6.37h2.54c.15-.94.25-1.88.35-2.83-1 0-1.9 0-2.86-.06A9.45 9.45 0 0 1 11.9 6c.7-.5 1.7-.3 2.55-.45V3.22c-1.5 0-3.3-.35-4.54.78S8.86 7.1 8.86 8.72h-2c0 .93 0 1.86 0 2.77l2.07.07q-.06 3.18 0 6.37c-2.15 0-4.3.06-6.45 0A2.34 2.34 0 0 1 0 15.74V2.28z" class="cls-1"/></g></g></g></g></g></g></svg>