<svg xmlns="http://www.w3.org/2000/svg" width="67pt" height="67pt" viewBox="0 0 67 67"><g fill="#050403"><path d="M5.53 0h24.7c.02 10.08 0 20.15 0 30.23-10.07 0-20.15 0-30.23 0V5.73C.72 2.93 2.8.87 5.53 0M1.8 6.92c-.1 7.2 0 14.43-.05 21.65 8.95 0 17.9 0 26.85 0-.04-8.94-.03-17.88 0-26.8-7.26.03-14.5-.1-21.75.03-2.8-.14-5.25 2.32-5.06 5.12zM36.87 0H61.4c2.5.7 4.43 2.4 5.6 4.68v25.55c-10.04 0-20.08 0-30.13 0 0-10.08 0-20.15 0-30.23m1.73 1.76c.02 8.94.02 17.88 0 26.82 8.95 0 17.9 0 26.85 0-.06-7.2.05-14.4-.03-21.6.16-2.54-1.75-5.14-4.43-5.14-7.47-.24-14.93 0-22.4-.08zM0 36.87c10.08 0 20.16 0 30.23 0 .02 10.05 0 20.1 0 30.13H4.97c-2.4-1-4.1-2.9-4.96-5.34v-24.8m1.75 1.74c.05 7.18-.06 14.37.03 21.55-.23 2.84 2.26 5.36 5.1 5.24 7.23.1 14.48-.02 21.72.02-.04-8.94-.04-17.87 0-26.8-8.95-.02-17.9 0-26.85-.02zM36.87 36.87c10.05 0 20.1 0 30.13 0v25.4c-.97 2.06-2.58 3.7-4.62 4.73h-25.5c0-10.04-.02-20.08 0-30.13m1.72 1.74c.02 8.95.02 17.9 0 26.83 7.17-.04 14.34.07 21.5-.03 2.55.1 5.1-1.76 5.24-4.4.26-7.47 0-14.93.1-22.4-8.94 0-17.9 0-26.84 0z" opacity=".95"/></g><g fill="#fff"><path d="M1.8 6.92c-.2-2.8 2.26-5.26 5.05-5.12 7.24-.13 14.5 0 21.74-.04-.03 8.93-.04 17.87 0 26.8-8.95.02-17.9 0-26.85 0 .06-7.2-.06-14.43.04-21.64zM1.75 38.6c8.95 0 17.9 0 26.85 0-.04 8.95-.04 17.88 0 26.82-7.24-.04-14.5.1-21.73-.03-2.83.1-5.32-2.4-5.1-5.25-.08-7.18.03-14.37-.02-21.55zM38.6 38.6c8.95 0 17.9 0 26.85 0-.1 7.47.15 14.93-.1 22.4-.15 2.64-2.7 4.5-5.25 4.4-7.16.1-14.33 0-21.5.03.02-8.94.02-17.88 0-26.82z"/></g><path fill="#fdca5a" d="M38.6 1.76c7.47.07 14.93-.16 22.4.08 2.67 0 4.58 2.6 4.42 5.14.08 7.2-.03 14.4.03 21.6-8.95 0-17.9 0-26.85 0 .02-8.94.02-17.88 0-26.82z"/></svg>