<svg xmlns="http://www.w3.org/2000/svg" width="1170.56" height="1127.1"><defs><style>.cls-1{fill:#fff7c9;}</style></defs><title>line</title><path id="_fff7c9fe" d="M71.4 0h1.3c-2.5 6.5-5.3 12.9-7.6 19.5C71.1 23 77 26.53 83 30c-16.5 9.53-32 21.13-44 35.94C27.57 79.84 19.26 96.86 18.36 115c-1 17.6 5.1 35.12 15.5 49.13 8.32 10.7 21.92 16.1 35.23 16.8 15.1.9 30.1-2.2 45.1-3.4h75.96v8.92c-24.72 0-49.43.1-74.15 0-18 1.5-35.7 7.3-53.93 5.1a63.66 63.66 0 0 1-27.62-10.1C21.65 173 13 159.8 6.95 146.08c-9.7-21.62-9.4-46.94-1-69C17 47.62 39.26 23.6 64.47 5.6c2.3-1.9 5.3-3 6.9-5.6zm895.47 273.38c15.9.5 32.22-1.5 47.83 2.3a82.16 82.16 0 0 1 57.64 51.73c2.9 7.5 3.9 15.63 5.3 23.54v8c-1.6 12.8-4.5 25.82-11.2 37-14.22 25.32-42.74 41.83-71.86 41.13H253a165.38 165.38 0 0 0-39 4.2c-45 10.2-84.65 41-106 81.85a161 161 0 0 0 139.1 236.1q333.67.14 667.43.1c9.3.1 18.7-.3 28 .7a148.7 148.7 0 0 1 133.8 131.78c.4 3.8 1 7.5 1.3 11.3v10.22c-1.6 16.9-4.3 33.82-10.8 49.63a148.83 148.83 0 0 1-142.4 93.86H278a70.5 70.5 0 0 0-71.24 69.74v1.3h-7.6a75 75 0 0 1 1.8-17c5.8-28.1 28.32-51.72 56-58.93 13-3.8 26.72-2.4 40.13-2.6h612.4c11.7-.1 23.4.5 35-.9a141.2 141.2 0 0 0 1.15-280.4c-10.7-1.4-21.5-1-32.22-1H265c-9-.1-18 .2-27-.5a168.6 168.6 0 0 1 11.2-336.7h746.4a74.35 74.35 0 0 0 0-148.7h-28.72c0-2.7 0-5.2 0-7.7z" class="cls-1"/></svg>