<svg xmlns="http://www.w3.org/2000/svg" viewBox="0 0 558.88 462.8"><defs><style>.cls-1{fill:#c56c9c;}.cls-2{fill:#fff;}</style></defs><title>1ruspack-logo_color-hor-ru [преобразованный]</title><g id="Layer_1" data-name="Layer 1"><path d="M286.31,303.65h-7.78l.74-117.27,4.82-5.74h3.71c34.27,0,48.72,17,48.35,42.42-.56,30.75-24.27,39.64-49.83,40.2Zm.56-115.6-.56,67.43h2c20.75,0,40.2-9.08,40.2-31.49C328.55,206.39,323.18,188.61,286.87,188Z" transform="translate(-0.26 -0.48)"/><path d="M389.07,181.38,362.58,303.65l-7.41-1.11L368,246.41l-22.42-63.91,6.67-2.41,18.71,53.35,10.74-53Z" transform="translate(-0.26 -0.48)"/><path d="M475.75,186c-48,0-69.1,17.23-69.1,54.46,0,37.05,17.6,55.58,66.14,55.58l84.11.19v7.23H472c-41.68,0-72.25-14.08-72.8-59.1,0-50.76,25-65.39,81.88-65.39l67.43.93v6.85Z" transform="translate(-0.26 -0.48)"/><path d="M413,346.19H286.31V461.61H278.9V342.49l3.52-3.52h138V461.61H413Z" transform="translate(-0.26 -0.48)"/><path d="M440.62,459.94l28.53-123.57H476l25.57,123.75-7.78,1.11L486.93,426H456.37l-8,35.38Zm31.87-108.56-14.64,67.25h27.6Z" transform="translate(-0.26 -0.48)"/><path d="M559.15,460.12l-6.67,3.15L526.73,392l1.67,69.66H521L519.13,339l7.23-.19.37,39.46,18-41.31,6.11,3.33-19.45,43Z" transform="translate(-0.26 -0.48)"/></g><g id="man-bw-11-4" data-name="man-bw-11"><path d="M217.63,118.21,192.27,6l-2.46,1.68v.06c0,.17-10.85,7.36-31.9,7.36h0a70.06,70.06,0,0,1-16.24-2.28c-16.89-4-36.46-12.36-65-12.36a112.43,112.43,0,0,0-54,14.3A117.25,117.25,0,0,0,6.49,25.42L4.18,14l-3.92.79L3,28.32c-.58.51-.88.81-.9.82l-.8.77L5.92,51.47l.88,5.6,1.91-.23H8.8l10.9,53.64-.46.44-.77.77,2.23,10.36v0l3.17,16,.26,0,0,.12.14-.14,1-.1L91.15,462.11h4.08l-66-324.69c2.23-.28,5.37-.71,9.05-1.29A240.85,240.85,0,0,0,64,130.81a143.72,143.72,0,0,0,15.56-5.58c4.51-1.86,9.17-3.91,13.58-5.94,8.4,1.14,16.57,2.86,24.74,4.6,14.09,3,28.16,6,43.33,6,13.15,0,26.87-2.35,37.33-4.68s17.66-4.67,17.7-4.69L218,120ZM12.77,56.29C15,56,18,55.46,21.55,54.79A164,164,0,0,0,47.21,48a25.64,25.64,0,0,1,8.9-1.82,14.52,14.52,0,0,1,5.56,1,15.5,15.5,0,0,1,7,6c2.8,4.17,4.56,9.94,5.56,15.85a101.67,101.67,0,0,1,1.29,16.71c0,.94,0,1.83,0,2.65A9.83,9.83,0,0,1,72,89c-15.46,0-28.61,5.49-37.9,10.94a89.11,89.11,0,0,0-10.9,7.53Zm-.51-4A177.28,177.28,0,0,1,28.1,41.8a112.56,112.56,0,0,1,16-8.06c5.5-2.12,11-3.63,15.72-3.63h0A17.89,17.89,0,0,1,70.2,33.55c4.51,3.11,8.13,8.42,10.57,14.54a53.86,53.86,0,0,1,3.71,19.51c0,6.05-1.15,11.63-3.31,15.45a14.91,14.91,0,0,1-1.69,2.44c0-7.47-.66-17.88-3.75-26.73a29.2,29.2,0,0,0-7-11.64,17.86,17.86,0,0,0-5.58-3.66,18.52,18.52,0,0,0-7.06-1.34h0a29.6,29.6,0,0,0-10.3,2.08,160.18,160.18,0,0,1-25,6.66C17.4,51.51,14.44,52,12.25,52.32ZM77,122A134.26,134.26,0,0,1,63,127a236.87,236.87,0,0,1-25.3,5.23c-3.41.53-6.35.94-8.51,1.21a66.61,66.61,0,0,1,10.2-6.63,73.84,73.84,0,0,1,35.08-8.66h0c3.7,0,7.33.09,10.91.4C82.59,119.73,79.78,120.85,77,122Zm119.71-.31c-10.15,2.23-23.2,4.46-35.49,4.46h0c-14.62,0-28.39-3-42.48-6S90.26,114,74.46,114a77.81,77.81,0,0,0-37.17,9.3,69.75,69.75,0,0,0-10.71,7.08L22.84,113a81.9,81.9,0,0,1,13.66-9.81C45.36,98.07,57.7,93.11,72,93.11h0a13.44,13.44,0,0,0,7.49-2.27,15.64,15.64,0,0,0,4.11-4.1,25.68,25.68,0,0,0,3.71-8.62,44.36,44.36,0,0,0,1.18-10.48,55.34,55.34,0,0,0-7.1-27.28,31.94,31.94,0,0,0-8.92-10.1,21.93,21.93,0,0,0-12.56-4.15h0c-5.69,0-11.77,1.78-17.74,4.12-9,3.52-17.71,8.81-24.25,13.15-3.54,2.35-6.43,4.49-8.34,5.92l-3.87-18A107,107,0,0,1,25.14,17.93,108.28,108.28,0,0,1,76.64,4.44c18.53,0,33.1,3.58,45.92,7.2,6.41,1.81,12.38,3.64,18.18,5A73.85,73.85,0,0,0,157.91,19c16.62,0,27.23-4.27,31.74-6.58l23.67,104.93C210.5,118.19,204.45,120,196.75,121.65Z" transform="translate(-0.26 -0.48)"/><path d="M191.14,281.29l-15,1.93,6.55-5.34-5.42-7.45-.6-.22a29.77,29.77,0,0,0-1.21-5.79,53.08,53.08,0,0,0-2.85-7.24l1.06-2.5-.56-.88a37.38,37.38,0,0,0-8.23-9.42q-.47-.37-.95-.71l.37-.54,4.46,2.53,4.66-1-8.08-9.28-14.14.18-10.72,2.9-9.55,10.26,1.09,3.74-2.46,6,7.24,12.89,6.1,5.65,2.88-.4,3.08,10.14-21.67,2.78L96,310.31l-22.17,1.46-2.55-8.43-13.57,4.47-3.37,8.36L60.74,332l5.52-2.81L94,334.88,123.2,322,94,462.11h14.6l36-81.14,16,6,21.22,75.11h15l-8.79-137.45,10.12,14,1.33,21.79-8.08,6.79,6.32,10.88h12.15l1-10.05V328.51Zm-23.89,31.08-3.19-14.51,4.34-9.51,8.4-1.08Zm-28.62-20.2,11.43-1.47,2.26,7.7-5.78,14.1Zm17.26,4.16-1.82-6.2,9.68-1.23-3.14,6.87-2.62.31Zm-.71,38.5-6.53-16.92,7.2-17.55,4.55-.53,4.26,19.36-6.26,16.54Zm14.51-67.22L167,259l2.12.11a49,49,0,0,1,2.55,6.5,30,30,0,0,1,.76,3Zm-5.26-18.34a35.43,35.43,0,0,1,4.76,5.79v0l-5.13-.27-12.89,3.05.92,3.89,10.8-2.56,2.95,9.42L159.2,273l-7.94-7-4.29-7.2,2.28-2,.48-5.19-7.36,1.56.11-1.08,7.23-4.58,10.59,1.45,1.42-2.09A24.66,24.66,0,0,1,164.44,249.27ZM141,262.64l2.34-1.22,4.24,6.45-1.79,2.66-6-4.57Zm8.8,13.39,1-.13,2.89,6.27,10.17,2.64-10.92,1.4Zm-87,50.45-4.14-10.3L60.76,311l7.92-2.61,4,13.05Zm144,41.36-.61,6.27H200l-3.59-6,5.59-4.82h4.83Z" transform="translate(-0.26 -0.48)"/><path class="cls-1" d="M76.64,4.44a108.28,108.28,0,0,0-51.5,13.5A106.84,106.84,0,0,0,5.69,31.29L9.55,49.34c1.91-1.43,4.8-3.53,8.34-5.88,6.54-4.34,15.28-9.72,24.25-13.24,6-2.34,12.06-4.12,17.74-4.12h0a21.93,21.93,0,0,1,12.56,4.15,31.63,31.63,0,0,1,8.92,10c4.71,8,7.09,18.09,7.1,27.32a44.48,44.48,0,0,1-1.18,10.5,25.66,25.66,0,0,1-3.71,8.62,15.78,15.78,0,0,1-4.11,4.13A13.45,13.45,0,0,1,72,93.11h0c-14.26,0-26.6,5-35.45,10.09A81.54,81.54,0,0,0,22.84,113l3.73,17.33a69.51,69.51,0,0,1,10.71-7.1,77.79,77.79,0,0,1,37.17-9.33c15.81,0,30.22,3.13,44.31,6.12s27.86,6,42.48,6h0c12.28,0,25.33-2.24,35.49-4.46,7.71-1.69,13.75-3.46,16.57-4.31L189.65,12.43C185.14,14.74,174.53,19,157.91,19a73.84,73.84,0,0,1-17.17-2.33c-5.8-1.38-11.77-3.21-18.18-5C109.74,8,95.17,4.45,76.64,4.44" transform="translate(-0.26 -0.48)"/><polyline class="cls-1" points="163.5 288.44 153.81 289.66 155.63 295.86 157.74 295.62 160.36 295.31 163.5 288.44"/><polyline class="cls-1" points="160.15 299.36 155.59 299.89 148.4 317.44 154.93 334.36 158.14 335.26 164.4 318.73 160.15 299.36"/><path class="cls-2" d="M59.86,30.11c-4.76,0-10.22,1.52-15.72,3.64a112.25,112.25,0,0,0-16,8A176,176,0,0,0,12.25,52.28c2.19-.33,5.15-.79,8.55-1.44a160.14,160.14,0,0,0,25-6.66,29.57,29.57,0,0,1,10.3-2.07h0a18.52,18.52,0,0,1,7.06,1.34,17.84,17.84,0,0,1,5.58,3.65,29.21,29.21,0,0,1,7,11.64C78.82,67.6,79.46,78,79.48,85.49a14.8,14.8,0,0,0,1.69-2.43c2.16-3.82,3.32-9.37,3.31-15.43a53.64,53.64,0,0,0-3.71-19.47c-2.44-6.11-6.06-11.51-10.57-14.62a17.88,17.88,0,0,0-10.31-3.43h-.08" transform="translate(-0.26 -0.48)"/><path class="cls-2" d="M74.81,118.11h-.35a73.84,73.84,0,0,0-35.08,8.66,66.19,66.19,0,0,0-10.2,6.67c2.16-.28,5.1-.7,8.51-1.24A237.15,237.15,0,0,0,63,127,134.53,134.53,0,0,0,77,122c2.73-1.11,5.54-2.23,8.33-3.46-3.58-.3-7.21-.4-10.91-.4" transform="translate(-0.26 -0.48)"/><polyline class="cls-2" points="150.5 275.42 149.55 275.55 152.64 285.74 163.56 284.33 153.39 281.69 150.5 275.42"/><path class="cls-2" d="M167,259l2.7,8.63,2.73,1a30,30,0,0,0-.76-3,49,49,0,0,0-2.55-6.5L167,259m-5.28-12-1.42,2.09-10.59-1.45-7.23,4.58-.11,1.08,7.36-1.56-.48,5.19-2.28,2,4.29,7.2,7.94,7,6.62-4.4-2.95-9.42-10.8,2.56-.92-3.89L164,254.82l5.13.27v0a35.43,35.43,0,0,0-4.76-5.79,24.66,24.66,0,0,0-2.72-2.3" transform="translate(-0.26 -0.48)"/><path class="cls-2" d="M150.07,290.71l-11.43,1.47,7.91,20.33,5.78-14.1-2.26-7.7m26.74-3.44-8.4,1.08-4.34,9.51,3.19,14.51,9.55-25.1" transform="translate(-0.26 -0.48)"/><polyline class="cls-2" points="206.55 362.83 201.71 363.05 196.08 368.16 199.71 374.64 205.94 374.64 206.55 367.36 206.55 362.64"/><polyline class="cls-2" points="143.09 260.95 140.75 262.16 139.53 265.49 145.54 270.06 147.34 267.4 143.09 260.95"/><polyline class="cls-2" points="68.42 307.95 60.5 310.56 58.43 315.7 62.56 326 72.37 321 68.42 307.95"/></g></svg>