<svg xmlns="http://www.w3.org/2000/svg" width="98" height="24.78"><defs><style>.cls-1{fill:#7a7a7a;}</style></defs><title>logo-2</title><g id="Слой_2"><g id="Слой_1-2"><g id="Слой_2-2"><path id="Layer_1" d="M12.4 23.74a5 5 0 0 1-5-5V16.5l7.45 4.3a6 6 0 0 0 3.37.8 6.14 6.14 0 0 0 .95-.12 11.37 11.37 0 0 1-6.78 2.26zM2.54 18a5 5 0 0 1 1.85-6.75h.05l1.9-1.07v8.63A6 6 0 0 0 8 22.85a11.34 11.34 0 0 1-5.38-4.78zM7.88 4.3a5 5 0 0 1 1.23.43c.77.37 1.5.85 2.26 1.28L3.9 10.35a6 6 0 0 0-2.75 3.43C.65 9.77 2.6 3.23 7.9 4.3zm4.5-3.25a5 5 0 0 1 5 4.48 3.83 3.83 0 0 1 0 .47v2.3C15.1 7 11.96 5 9.55 3.8a6 6 0 0 0-4-.5A11.37 11.37 0 0 1 12.4 1zm9.84 5.7a5 5 0 0 1-.64 5.84 13.1 13.1 0 0 1-3.17 2.07V6a6 6 0 0 0-1.56-4 11.37 11.37 0 0 1 5.4 4.74zm-9.28 11.1V12.7l4.48-2.58v5.15zm-.55-6.06L7.9 9.2l4.5-2.57 4.47 2.58zm-5-1.7l4.46 2.6v5.15L7.4 15.27zm14.8 8a5 5 0 0 1-5.3 2.4 5.1 5.1 0 0 1-1.6-.64l-1.9-1.07c2.4-1.4 5.46-3 7.76-4.5a6 6 0 0 0 2.45-3.22 11.37 11.37 0 0 1-1.42 7zm.9-11.9a12.4 12.4 0 1 0-10.7 18.6 12.54 12.54 0 0 0 10.76-6.22c2.1-3.64 2.27-8.8 0-12.4zm8.37 6.08h1.42a3.2 3.2 0 0 0 2.1-.53 1.92 1.92 0 0 0 .63-1.57 1.7 1.7 0 0 0-.7-1.52 3.8 3.8 0 0 0-2.05-.47h-1.43zm0 1.7v5h-2V6.48H33a5.77 5.77 0 0 1 3.58.9 3.28 3.28 0 0 1 1.16 2.73 3.4 3.4 0 0 1-2.42 3.33l3.5 5.56h-2.35l-3-5zM47 19l-.28-1.24h-.1a2.85 2.85 0 0 1-1.2 1 4 4 0 0 1-1.75.38 3.48 3.48 0 0 1-2.56-.86 3.54 3.54 0 0 1-.83-2.6V9.52h2v5.84A2.5 2.5 0 0 0 42.8 17a1.7 1.7 0 0 0 1.38.54 2.22 2.22 0 0 0 1.82-.8 4.13 4.13 0 0 0 .6-2.53V9.5h2V19zm10.82-2.74a2.5 2.5 0 0 1-1 2.12 4.86 4.86 0 0 1-2.88.73 7 7 0 0 1-3-.54v-1.73a7.46 7.46 0 0 0 3.1.77q1.85 0 1.85-1.13a.9.9 0 0 0-.2-.6 2.42 2.42 0 0 0-.7-.5 11.6 11.6 0 0 0-1.3-.57 6.06 6.06 0 0 1-2.2-1.26 2.34 2.34 0 0 1-.6-1.65 2.15 2.15 0 0 1 1-1.9 4.64 4.64 0 0 1 2.67-.68 7.54 7.54 0 0 1 3.12.67l-.7 1.5a7 7 0 0 0-2.58-.64q-1.6 0-1.6.9a.9.9 0 0 0 .42.76 9.1 9.1 0 0 0 1.8.85 8.26 8.26 0 0 1 1.7.83 2.34 2.34 0 0 1 1.06 2zm4.42-3.7h1.07a3.93 3.93 0 0 0 2.3-.53 2 2 0 0 0 .76-1.7 2 2 0 0 0-.66-1.63 3.2 3.2 0 0 0-2-.54h-1.46v4.4zm6.22-2.3a3.64 3.64 0 0 1-1.28 3 5.66 5.66 0 0 1-3.65 1h-1.3v4.66h-2V6.47h3.6a5.35 5.35 0 0 1 3.48 1 3.45 3.45 0 0 1 1.18 2.82zm5.2 7.34a2.5 2.5 0 0 0 1.75-.6 2.2 2.2 0 0 0 .68-1.7v-.82h-1.2a4.15 4.15 0 0 0-2.07.5 1.44 1.44 0 0 0-.63 1.3 1.26 1.26 0 0 0 .38 1 1.62 1.62 0 0 0 1.12.33zm3 1.35l-.4-1.3h-.07a3.86 3.86 0 0 1-1.4 1.16 4.34 4.34 0 0 1-1.76.3 3 3 0 0 1-2.17-.73 2.8 2.8 0 0 1-.78-2.12A2.5 2.5 0 0 1 71.13 14a6.2 6.2 0 0 1 3.3-.8h1.63v-.5a1.9 1.9 0 0 0-.42-1.36 1.72 1.72 0 0 0-1.3-.45 4.53 4.53 0 0 0-1.35.2 10.48 10.48 0 0 0-1.28.5L71 10.16a7 7 0 0 1 1.68-.6 7.73 7.73 0 0 1 1.72-.22 4.08 4.08 0 0 1 2.72.8 3.1 3.1 0 0 1 .92 2.48V19zm8.02.15a4.1 4.1 0 0 1-3.25-1.24 5.32 5.32 0 0 1-1.1-3.6 5.26 5.26 0 0 1 1.15-3.65 4.3 4.3 0 0 1 3.37-1.26 6.3 6.3 0 0 1 2.7.56l-.6 1.6a6.08 6.08 0 0 0-2.1-.5q-2.45 0-2.45 3.26a3.88 3.88 0 0 0 .6 2.4 2.1 2.1 0 0 0 1.8.8 5.13 5.13 0 0 0 2.53-.67v1.73a4 4 0 0 1-1.14.45 6.88 6.88 0 0 1-1.5.13zm6.78-5.13l1.14-1.42 2.85-3.04h2.3l-3.8 4.08L98 18.95h-2.35l-3.03-4.14-1.1.93v3.23h-2V5.68h2v6.47l-.1 1.82h.04z" class="cls-1"/></g></g></g></svg>