<svg xmlns="http://www.w3.org/2000/svg" width="52" height="46.83"><defs><style>.cls-1{fill:#313034;opacity:0.95;isolation:isolate;}.cls-2{fill:#fdce35;}</style></defs><title>money-back</title><g id="Слой_2"><g id="Слой_1-2"><path id="_313034f3" d="M12.12 7.13a23.1 23.1 0 0 1 25.74-5.28A23.4 23.4 0 0 1 52 22.05v5.3C49.92 38 40.44 46.9 29.37 46.83h-4.63c-3.1-1.16-6.38-2-9.1-4C8.14 37.88 4.3 28.43 5.58 19.6c-1.9 1.14-3.4 3-5.57 3.62v-1.08c2.2-1.7 4.35-3.48 6.67-5 1.87 1.35 2.9 3.62 4.4 5.35.42.52 1.6 2 .2 2.06-1.75-1.37-2.76-3.5-4.2-5.2a22.45 22.45 0 0 0 9.27 22.33 22.12 22.12 0 0 0 25.45-.45 22.28 22.28 0 0 0 7.73-25 22 22 0 0 0-20.47-14.9c-6-.2-11.66 2.5-16 6.44a7.26 7.26 0 0 1-.93-.68zm15.58 9.3c2-2.5 5.63-2.54 8.54-2.2 2.07.32 5.2 1.5 4.38 4.2 2 .92 4 3.06 1.8 5a2.7 2.7 0 0 1 0 4c.93 1.06 1.54 2.74.12 3.72a10.6 10.6 0 0 1-11.6 0c-1.4-1-.8-2.74.27-3.7-1.42-1.12-1.25-2.8-.13-4.06-.3-.53-.65-1-.92-1.54 0-.4.07-1.2.1-1.6-1.4-.7-3.7-2-2.54-3.87m1 .83c2.4 3 8.4 3 10.9.06a8.6 8.6 0 0 0-10.9-.07m9.3 2.9c-2 .87-4.25.4-6.37.65-.64 1.43 1.45 2 2.47 2.3 2.68.6 6.36.67 8.15-1.75-1-1.2-2.8-2.1-4.27-1.22m-6.64 5.3c2.6 2.87 8.3 2.8 11 0-.54-.47-1.12-1.46-2-1.1a15.72 15.72 0 0 1-7.63-.06 3.74 3.74 0 0 0-1.35 1.17m0 4.08c2.74 2.78 8.26 2.77 11 0-.54-.5-1.12-1.52-2-1.16a15.2 15.2 0 0 1-7.65-.08 5.43 5.43 0 0 0-1.42 1.24zM17 26.7c3.33-1 9.76-1.15 10.37 3.23-2.46 3.92-8.78 3.6-12.35 1.36-2.23-1.6-.1-4.3 2-4.6m.64 1.2c-.8.35-2.48.8-2.14 1.93 2.12 2 5.42 1.9 8.08 1.32.93-.38 2.67-.72 2.37-2-2.27-2-5.58-1.88-8.32-1.27z" class="cls-1"/><path id="_fdce35ff" d="M28.67 17.26a8.6 8.6 0 0 1 10.9.06c-2.5 2.98-8.57 2.97-10.9-.06zm9.27 2.9c1.48-.88 3.28 0 4.27 1.2-1.77 2.44-5.45 2.35-8.14 1.77-1-.3-3.1-.88-2.47-2.32 2.1-.24 4.34.2 6.35-.64zm-6.64 5.27a3.74 3.74 0 0 1 1.38-1.17 15.72 15.72 0 0 0 7.63.06c.87-.35 1.45.64 2 1.1-2.67 2.84-8.37 2.88-11 0zM17.65 27.9c2.74-.62 6-.73 8.3 1.2.3 1.33-1.44 1.67-2.37 2-2.66.57-6 .66-8.08-1.32-.33-1.08 1.35-1.53 2.15-1.9zm13.63 1.6a5.43 5.43 0 0 1 1.37-1.23 15.2 15.2 0 0 0 7.65.08c.86-.36 1.44.67 2 1.15-2.76 2.78-8.3 2.8-11.02 0z" class="cls-2"/></g></g></svg>