<svg xmlns="http://www.w3.org/2000/svg" width="14" height="24.37"><defs><style>.cls-1{fill:#7a7a7a;}</style></defs><title>od</title><g id="Слой_2"><g id="Слой_1-2"><path id="_7a7a7aff" d="M6.47 0h1.07A6.6 6.6 0 0 1 13 4.05 6.34 6.34 0 1 1 .83 7.25 6.5 6.5 0 0 1 6.47 0m-.52 4a2.63 2.63 0 0 0-.36 4.5 2.66 2.66 0 0 0 4.04-1.4A2.66 2.66 0 0 0 5.94 4zM0 14.2a2.24 2.24 0 0 1 2-1.3c1.7.64 3.36 1.67 5.27 1.5 1.87.1 3.45-1 5.15-1.56a11.8 11.8 0 0 1 1.56.77v2.2a12 12 0 0 1-4.36 2.1 42.26 42.26 0 0 1 3.88 4c.76.87-.12 1.73-.53 2.52H11c-1.38-1.2-2.63-2.54-3.9-3.85-1.32 1.3-2.57 2.64-3.95 3.86H1.3c-.5-.7-1.3-1.63-.65-2.5a32.68 32.68 0 0 1 3.93-4C3 17.3 1.1 16.88 0 15.4z" class="cls-1"/></g></g></svg>