<svg xmlns="http://www.w3.org/2000/svg" width="54" height="35"><defs><style>.cls-1{fill:#fdcd47;}.cls-2{fill:#fff;}.cls-3{fill:#1a1a1a;opacity:0.71;}.cls-3,.cls-4{isolation:isolate;}.cls-4{fill:#303030;opacity:0.51;}</style></defs><title>st-1</title><g id="Слой_2"><g id="Слой_1-2"><path id="_000000ff" d="M9.9 0H44a7.22 7.22 0 0 1 5 3.36c1 1.46.88 3.25 1 4.92a5.8 5.8 0 0 1 3.17 2.4l.08.14a13 13 0 0 1 .75 1.86v1.6a6 6 0 0 1-2.65 3.9c-.1 4.25 0 8.5 0 12.77q-2 0-4.08.08c0 1.32 0 2.65 0 4h-6.7q0-2-.12-4c-9 0-18-.06-26.93 0-.06 1.33-.1 2.66-.08 4H6.78c0-1.33 0-2.65 0-4-1.34-.07-2.67-.1-4-.08 0-4.23 0-8.46 0-12.68A6.23 6.23 0 0 1 0 13.84v-.64c.14-.66.3-1.3.47-2a1.05 1.05 0 0 0 1-1.42A19 19 0 0 1 4.1 8.1 7.15 7.15 0 0 1 9.9 0M5.4 8.08a5.7 5.7 0 0 1 5.38 4.1c.08 3.13 0 6.26 0 9.4 10.8 0 21.58 0 32.38 0 .2-3.2 0-6.43.18-9.64a5.6 5.6 0 0 1 5.26-3.88c.57-3.2-1.8-6.65-5.15-6.7q-16.5 0-33 0c-3.35.07-5.66 3.52-5.12 6.7M1.65 15a5 5 0 0 0 2.42 2.47c0 4.06 0 8.12 0 12.18q23 0 46 0c-.1-4.06.1-8.12-.08-12.18 2.37-1 3.63-4.16 2-6.32-1.85-2.8-6.68-1.82-7.3 1.44-.08 3.43 0 6.87 0 10.32-11.73 0-23.43 0-35.13 0 .13-3.13 0-6.26.1-9.4.04-2.76-3.23-4.9-5.68-3.8A4 4 0 0 0 1.64 15m6.5 16c0 .9 0 1.78 0 2.67h4.05c0-.88 0-1.76 0-2.64-1.35 0-2.7-.12-4.05 0m33.73 0c0 .88 0 1.76 0 2.65 1.36 0 2.72 0 4.07 0 0-.88 0-1.76 0-2.64Q43.9 31 41.87 31z"/><path id="_fdcd47ff" d="M5.4 8.08c-.53-3.17 1.78-6.62 5.13-6.7q16.48 0 33 0c3.35.05 5.72 3.5 5.15 6.7a5.6 5.6 0 0 0-5.3 3.92c-.15 3.2 0 6.42-.18 9.64-10.8 0-21.58 0-32.37 0 0-3.14 0-6.27 0-9.4A5.7 5.7 0 0 0 5.4 8.07z" class="cls-1"/><path id="_ffffffff" d="M1.65 15A4 4 0 0 1 4 9.72c2.45-1.08 5.72 1 5.56 3.77 0 3.12 0 6.25-.1 9.4 11.7.04 23.4 0 35.12 0 0-3.47 0-6.9 0-10.36.64-3.26 5.47-4.24 7.3-1.44 1.7 2.17.43 5.34-2 6.33.17 4.06 0 8.1.08 12.18q-23 0-46 0c0-4.04 0-8.1 0-12.16A5 5 0 0 1 1.66 15zm6.5 16c1.34-.1 2.7 0 4.04 0 0 .88 0 1.76 0 2.64H8.1c.02-.85.03-1.73.04-2.64zm33.72 0q2 0 4 0c0 .88 0 1.75 0 2.64-1.36 0-2.72 0-4.07 0 .07-.83.07-1.72.07-2.64z" class="cls-2"/><path id="_1a1a1ab4" d="M.47 11.23a1.92 1.92 0 0 1 1-1.42 1.05 1.05 0 0 1-1 1.44z" class="cls-3"/><path id="_30303082" d="M53.22 10.7l.08.12z" class="cls-4"/></g></g></svg>