<svg xmlns="http://www.w3.org/2000/svg" width="45" height="45.02"><defs><style>.cls-1{fill:#fdce35;}.cls-2{fill:#fff;}</style></defs><title>st-2</title><g id="Слой_2"><g id="Слой_1-2"><path id="_fdce35ff" d="M13.86 1.73a22.5 22.5 0 0 1 26.23 34.8A22.87 22.87 0 0 1 24 45h-2.6A22.54 22.54 0 0 1 1.57 14.22a22.6 22.6 0 0 1 12.28-12.5m4.73.85a20.33 20.33 0 1 0 23.2 13.57C38.86 6.64 28.3.44 18.6 2.57zM32.2 15.2c.7-1.45 2.92.05 1.83 1.18-4.33 5.3-8.6 10.66-13.1 15.82A8.86 8.86 0 0 1 18 29.47c-2-2.38-4-4.67-6-7.1-1-.9.66-2.53 1.52-1.52 2.48 2.67 4.67 5.6 7.14 8.26 3.9-4.6 7.64-9.32 11.55-13.9z" class="cls-1"/><path id="_ffffffff" d="M18.6 2.57C28.3.43 38.86 6.65 41.8 16.14A20.3 20.3 0 1 1 18.6 2.57M32.2 15.2c-3.9 4.57-7.63 9.3-11.5 13.9-2.48-2.66-4.67-5.58-7.15-8.25-.87-1-2.56.62-1.52 1.53 1.92 2.42 4 4.7 6 7.1a8.86 8.86 0 0 0 2.92 2.73C25.43 27 29.7 21.7 34 16.4c1.1-1.13-1.1-2.63-1.8-1.2z" class="cls-2"/></g></g></svg>