<svg xmlns="http://www.w3.org/2000/svg" width="36" height="45"><defs><style>.cls-1,.cls-3,.cls-7{fill:#181818;}.cls-1{opacity:0.64;}.cls-1,.cls-10,.cls-11,.cls-12,.cls-2,.cls-3,.cls-5,.cls-6,.cls-7,.cls-8,.cls-9{isolation:isolate;}.cls-2{opacity:0.93;}.cls-3{opacity:0.59;}.cls-4{fill:#fff;}.cls-5{fill:#161616;opacity:0.23;}.cls-10,.cls-6{fill:#151515;}.cls-11,.cls-6{opacity:0.45;}.cls-7{opacity:0.33;}.cls-8{fill:#1c1c1c;opacity:0.41;}.cls-9{fill:#1a1a1a;opacity:0.31;}.cls-10,.cls-12{opacity:0.48;}.cls-11{fill:#222;}.cls-12{fill:#242424;}.cls-13{fill:#fdcd47;}</style></defs><title>st-3</title><g id="Слой_2"><g id="Слой_1-2"><path id="_181818a3" d="M15.2 0h2.4a2 2 0 0 1-2.66.25z" class="cls-1"/><path id="_000000ed" d="M17.6 0h.74a2.2 2.2 0 0 0 3 .23 22.2 22.2 0 0 1 5.54 2.7C27.92 4 29 5.07 30 6.13l.12.15a1.4 1.4 0 0 0 .88 1.5l.48 1.17.5 1.13a31.2 31.2 0 0 1 .67 9h3.3V45H0V19.14h3.38c-.08-3.34-.16-6.76 1-10a2.33 2.33 0 0 0 1.08-2c.3-.46.6-.93.92-1.4C7.28 4.82 8.2 3.9 9.16 3A20.1 20.1 0 0 1 14.94.24 2 2 0 0 0 17.6 0m-6.52 3.07a13.44 13.44 0 0 0-6.38 9.48 47.38 47.38 0 0 0-.23 6.58h2.3c0-3.24-.36-6.68 1.25-9.64a11.28 11.28 0 0 1 20.77 1.76c.82 2.53.42 5.24.5 7.86h2.3c-.08-2.53.2-5.1-.4-7.6a13.5 13.5 0 0 0-6-8.35 13.64 13.64 0 0 0-14.13-.12m-.48 5Q9.3 7.9 9.66 9.2a3.43 3.43 0 0 0-1.15 2.36l-.45.1-.18.53.25.35c-.46 2.15-.2 4.37-.25 6.56q10.15 0 20.3 0c-.12-3.07.53-6.54-1.33-9.24.44-.8-.53-2.18-1.42-1.93C22 3.38 13.87 3.4 10.6 8.06m-9.48 35.8q16.9 0 33.8 0c0-7.86 0-15.73 0-23.6-11.26 0-22.53 0-33.8 0 0 7.85.02 15.74 0 23.6z" class="cls-2"/><path id="_18181896" d="M18.34 0h2.74l.25.23a2.2 2.2 0 0 1-3-.23z" class="cls-3"/><path id="_ffffffff" d="M11.08 3.07a13.64 13.64 0 0 1 14.1.12 13.5 13.5 0 0 1 6 8.34c.64 2.48.35 5.06.4 7.6H29.3c-.07-2.62.34-5.33-.5-7.87A11.28 11.28 0 0 0 8 9.47c-1.6 3-1.24 6.4-1.25 9.66H4.47a47.38 47.38 0 0 1 .23-6.58 13.44 13.44 0 0 1 6.38-9.48zM15.2 25.3a7.93 7.93 0 0 1 10.57 5.78c1.13 4.66-2.94 9.7-7.77 9.4-4.47.23-8.36-4.15-7.83-8.55a7.9 7.9 0 0 1 5.03-6.63z" class="cls-4"/><path id="_1616163a" d="M6.4 5.7a7.6 7.6 0 0 1 2.76-2.76c-.94.9-1.87 1.82-2.77 2.76z" class="cls-5"/><path id="_15151572" d="M26.87 2.93A11 11 0 0 1 30 6.13c-1-1.06-2.08-2.13-3.13-3.2z" class="cls-6"/><path id="_18181854" d="M30.14 6.28a1.36 1.36 0 0 1 .86 1.5 1.4 1.4 0 0 1-.86-1.5z" class="cls-7"/><path id="_1c1c1c69" d="M4.4 9.15a2.06 2.06 0 0 1 1.07-2 2.33 2.33 0 0 1-1.08 2z" class="cls-8"/><path id="_1a1a1a4f" d="M9.66 9.2q-.35-1.3.93-1.14a1.7 1.7 0 0 1-.95 1.15z" class="cls-9"/><path id="_1515157a" d="M25.43 7.93c.9-.25 1.86 1.14 1.42 1.93a6.93 6.93 0 0 1-1.42-1.93z" class="cls-10"/><path id="_22222272" d="M31.52 8.95l.5 1.13z" class="cls-11"/><path id="_2424247b" d="M8.06 11.66l.45-.1-.34 1-.27-.38z" class="cls-12"/><path id="_fdcd47ff" d="M1.12 43.87c0-7.87 0-15.75 0-23.63 11.27 0 22.54 0 33.8 0 0 7.87 0 15.75 0 23.6q-16.9 0-33.8 0m15.1-20a9 9 0 0 0-3.57 16 9 9 0 1 0 3.56-16z" class="cls-13"/><path id="_000000ff" d="M16.2 23.84a9 9 0 1 1-7.08 7.6 9.05 9.05 0 0 1 7.1-7.6m-1 1.45a7.9 7.9 0 0 0-5 6.62c-.54 4.4 3.34 8.77 7.82 8.54 4.83.3 8.9-4.73 7.77-9.4a7.93 7.93 0 0 0-10.6-5.77z"/></g></g></svg>