<svg xmlns="http://www.w3.org/2000/svg" width="799" height="195.08"><defs><style>.cls-1{fill:#e5e5e5;}.cls-2,.cls-6,.cls-7{fill:#fff;}.cls-3,.cls-8{fill:none;stroke-linecap:round;stroke-linejoin:round;}.cls-3{stroke:#b0b0b0;}.cls-4{fill:#86c200;}.cls-5{fill:#cbcbcb;}.cls-6{opacity:0.3;}.cls-6,.cls-7{isolation:isolate;}.cls-7{opacity:0.2;}.cls-8{stroke:#989898;}</style></defs><title>truck</title><g id="Слой_2"><g id="Слой_1-2"><g id="Слой_2-2"><g id="_02-2"><g id="Грузовик"><g id="Тени"><path d="M680 177l61-2.88-.6-9.75 1.12-4.42-2.47-1.2c-4.42-9.6-10.72-15.22-17.4-18a30.77 30.77 0 0 0-27.5 2.77l-1.5.67h-3.45l-.45 4-.6 1.4c-6.9 6.3-7.73 16.7-8.15 27.4zM5.9 139.4l-2.17.08-.67.6.07 6.75.6.67 5-.07v20.17H.57l-.07 12 8.17.07.22-1.87 5.6-5.25.22-10 18.27-9.2h56.3c-3.6 7.2-5.33 15.9-5.7 25.86l5.6.1.23-4.36 2.1-1.35a32.84 32.84 0 0 1-.3-10.5 40.35 40.35 0 0 1 4.57-9.8h154.4a34.06 34.06 0 0 1 4.57 9.73 35.65 35.65 0 0 1-.22 10.57l1.95 1.34.3 4.2 5.55.07a61.47 61.47 0 0 0-5.7-26.07l12.6.22v-1.12l6 .07v-10.42H5.9zm273.32 2.7h118.74v10.5H279.22zm122.94 0l.15 10.28 25.13.22v.75h2.47l.14 8.62h3.15v5.92l-1.14 1.63v3.3l4.72-.07v.97l-3.23 3.52.07 3.15-3.6.1v2.16H449l-.07-2.17-3.67-.17v-3.3l-3.22-3.52.07-.74 3.85.07V161.9h.67l-.06-19.8h-44.38zm108.17 2.18l-20.54 1c-5.34.9-10.37 1.8-14.2 2.85a12.52 12.52 0 0 0-9.3 8.47l-3.8-.07-1 .75-.08 4 .75.75h3a186.25 186.25 0 0 0 .07 25.2c3.52.5 6.15-.6 7.2-4.2l.22-6.08c.15-2.32.82-4.12 2.25-5.25l48.2 8.25 5.1 2.85 1.43.67 1.57.22 62.16.2 1-.37 1.12-1.42h-63.2a2.55 2.55 0 0 1-2.28-2.6c.67-10.58-1.12-20.1-7-28.5-.67-.8-.07-1.7.9-1.87h77.6v1.42a2.12 2.12 0 0 0 1 1.35h15.1a1.72 1.72 0 0 0 1.4-1.1l.07-2.32.67-1-3.3-2.92h-8.92l-1.5-2.1h-44.8l-3.44 3.45-36 .6v1.5l-1.87.46-.8-1.2-5.32.22z" class="cls-1"/><circle cx="500.13" cy="169.39" r="25.19" class="cls-1"/><circle cx="500.13" cy="169.39" r="16.57" class="cls-2"/><circle cx="227.04" cy="169.39" r="25.19" class="cls-1"/><circle cx="227.04" cy="169.39" r="16.57" class="cls-2"/><circle cx="172.92" cy="169.39" r="25.19" class="cls-1"/><circle cx="172.92" cy="169.39" r="16.57" class="cls-2"/><circle cx="118.94" cy="169.39" r="25.19" class="cls-1"/><circle cx="118.94" cy="169.39" r="16.57" class="cls-2"/><circle cx="710.56" cy="169.39" r="25.19" class="cls-1"/><circle cx="710.56" cy="169.39" r="16.57" class="cls-2"/><path d="M198 171.42a11.8 11.8 0 0 0 4 .45l8.47-19.64-20.84.37zm404.9-9.15h14.63a1.5 1.5 0 0 1 1.47 1.43v7a1.5 1.5 0 0 1-1.42 1.42H602.9a1.5 1.5 0 0 1-1.4-1.42v-7a1.5 1.5 0 0 1 1.4-1.43zm36.3 16.5l-13.73.06-2 2.25H629a4.32 4.32 0 0 0 3.82 2.77 4.2 4.2 0 0 0 4.27-2.85l2 .07zm16.33-5.7h7.57a5.85 5.85 0 0 1 5.85 5.85v5H649.7v-5a5.85 5.85 0 0 1 5.83-5.85zM752.46 51.4l-11.1.07 3 1.42.83.8.2.75-.3.45-.5.16-1-.15-5.4-1.33-1.94-.56-4.35-.66-1.34-.33-1.2-.6h-22.2a4.83 4.83 0 0 0-4.8 4.8v19.35A4.67 4.67 0 0 0 707 80.2h29.5a9 9 0 0 1 4.57 1.5l6.45 4.1a6 6 0 0 0 3 .83h10a6.45 6.45 0 0 0 2.92-.67L767 83.7l-.3-.8c-1.35.44-2.25-.38-2.77-1.8L757.7 54a38.08 38.08 0 0 1-5.24-2.6zM676.6 8.45c13.64 2.17 26 5.25 36.43 9.67a2.25 2.25 0 0 1 1.45 2.88 2.14 2.14 0 0 1-2.32 1.5l-39.2-.9a1.9 1.9 0 0 1-1.88-1.92v-.3a81.4 81.4 0 0 1 1.35-8.1 3.5 3.5 0 0 1 4-2.87zm85.16 36.28l-6.22-12.9a10.5 10.5 0 0 0-4.35-3.3l-2.4-.5c-1 0-1.37.9-1 2.3l4.7 11.33a4.7 4.7 0 0 0 4.8 3.07z" class="cls-1"/></g><g id="Контур"><path d="M5.9.5h621.83v141.68H5.9z" class="cls-3"/><circle cx="710.48" cy="169.39" r="25.19" class="cls-3"/><circle cx="710.48" cy="169.39" r="16.49" class="cls-3"/><path d="M710.48 183.64a14.32 14.32 0 1 1 14.32-14.32m-14.32-10.2a10.27 10.27 0 1 1-10.27 10.27m10.28 7.86a7.87 7.87 0 1 1 7.87-7.87m-7.87-3.4a3.3 3.3 0 1 1-3.3 3.3" class="cls-3"/><circle cx="500.13" cy="169.39" r="25.19" class="cls-3"/><circle cx="500.13" cy="169.39" r="16.49" class="cls-3"/><path d="M500.13 183.64a14.32 14.32 0 1 1 14.32-14.32m-14.32-10.2a10.27 10.27 0 1 1-10.27 10.27m10.27 7.86a7.87 7.87 0 1 1 7.87-7.87m-7.87-3.4a3.3 3.3 0 1 1-3.3 3.3" class="cls-3"/><circle cx="226.97" cy="169.39" r="25.19" class="cls-3"/><circle cx="226.97" cy="169.39" r="16.49" class="cls-3"/><path d="M227 183.64a14.32 14.32 0 1 1 14.32-14.32M227 159.12a10.27 10.27 0 1 1-10.27 10.27m10.27 7.86a7.87 7.87 0 1 1 7.87-7.87M227 166a3.3 3.3 0 1 1-3.3 3.3" class="cls-3"/><circle cx="172.92" cy="169.39" r="25.19" class="cls-3"/><circle cx="172.92" cy="169.39" r="16.49" class="cls-3"/><path d="M172.92 183.64a14.32 14.32 0 1 1 14.32-14.32m-14.32-10.2a10.27 10.27 0 1 1-10.27 10.27m10.27 7.86a7.87 7.87 0 1 1 7.87-7.87m-7.88-3.4a3.3 3.3 0 1 1-3.3 3.3" class="cls-3"/><circle cx="118.87" cy="169.39" r="25.19" class="cls-3"/><circle cx="118.87" cy="169.39" r="16.49" class="cls-3"/><path d="M118.87 183.64a14.32 14.32 0 1 1 14.32-14.32m-14.33-10.2a10.27 10.27 0 1 1-10.27 10.27m10.27 7.86a7.87 7.87 0 1 1 7.87-7.87m-7.87-3.4a3.3 3.3 0 1 1-3.3 3.3M14.52 142.18v30.36L8.75 178v-35.8m418.67 11.23h19.12v-11.25M256.8 153.43h10.57m-20.84 0h1.73m-55.86 0h13.05m-67.1 0h12.83m-55.48 0h2.03m-83.2 9.37l18.2-9.37H87.1M269.17 165.8H422.1v5.47H269.17zm0-13.27H422.1V158H269.17zM.5 167.43h8.17v12.15H.5zm8.25-20H4a.9.9 0 0 1-.9-.9v-6.22a.9.9 0 0 1 .9-.9h1.8M422.1 152.53h5.4v18.74h-5.4zm-146.93 5.54v7.73m1.2-7.73v6.23m2.93-6.23v7.73m-4.13-23.62v10.35m1.2-10.35v8.85m2.93-8.85v10.35m118.8 5.54v7.73m1.2-7.73v6.23m2.93-6.23v7.73m-4.13-23.62v10.35m1.2-10.35v8.85m2.93-8.85v10.35M117.3 142.18c-17.63.22-28.35 14.1-28.2 37.18h-5.6c.74-21.8 7.26-35.9 23.6-37.18M89.18 175.1l2.17-1.2a34.67 34.67 0 0 1-.37-10m137.5-21.72c17.6.22 28.33 14.1 28.2 37.18h5.6c-.75-21.8-7.27-35.9-23.6-37.18m17.9 32.92l-2.17-1.2a34.67 34.67 0 0 0 .4-10M195 157a8.13 8.13 0 0 1 8.7-.82m-3.65 15.62a8.17 8.17 0 0 1-1.95-.23M430.04 180.4H449v2.26h-18.96zm12-26.97v20.24h-5.17v-20.24m-.23 19.4H432v-3.2l1.27-1.74v-8.86h3.37m5.46 0h3.76v13.8h-3.75m3.16 7.56v-3.36h-11.62v3.37m3.22-6.73l-3.22 3.37m8.4-3.37l3.22 3.37m-4.96 0v-3.37m-1.64 0v3.37m-5.46-15.14h-3.16v-1.8h3.23m12.67 0h.6v1.8h-.6m.6-1.8v-6.67m-16.5 0v6.67m2.1-6.67v6.67M474 172.62l-.37.52c-1.12 1.87-.9 3.75-1 5.92s.07 4.72-1.42 6.37a5.18 5.18 0 0 1-1.63 1.2 7.17 7.17 0 0 1-4.35.45 147.68 147.68 0 0 1-.14-18.22c.22-5.25 0-11.62 3.15-16.12a9.67 9.67 0 0 1 5.1-3.82 52.4 52.4 0 0 1 10.7-2.77c1.72-.3 3.45-.52 5.17-.75M465.28 187a.75.75 0 0 0 .37-.6c1.72-4.87 1-10.2 1.65-15.3.6-5.46 2-10.7 5.1-15.2a30.55 30.55 0 0 1 6.22-6.6c2.55-2 5.47-2.78 8.55-3.53m-21.82 16.13h-2.77a1 1 0 0 1-1-1v-3.3a1 1 0 0 1 1-1h3.94m-2.52 5.3v-3.98M6.95 147.42v-5.24M639.2 178.76h-13.73l-2.47 3h-90.56a2.53 2.53 0 0 1-2.55-2.5v-.12c.35-11.24-1.5-21-7-28.34a1.2 1.2 0 0 1 1-1.95h77.57v1.35a1.5 1.5 0 0 0 1.42 1.42h14.6a1.5 1.5 0 0 0 1.5-1.42v-2.1l2.24-2.47h18zm-36.3-16.5h14.63a1.5 1.5 0 0 1 1.47 1.44v7a1.5 1.5 0 0 1-1.42 1.42H602.9a1.5 1.5 0 0 1-1.4-1.42v-7a1.5 1.5 0 0 1 1.4-1.43zm158.86-117.6a143.27 143.27 0 0 0-8.55-16.5 23.16 23.16 0 0 0-15.5-10.94m-68.75 132H639.2m31.48 32.02v2.62h-31.5v-5.1" class="cls-3"/><circle cx="655.23" cy="178.61" r="2.92" class="cls-3"/><circle cx="663.48" cy="178.61" r="2.92" class="cls-3"/><path d="M669 182.66v-3.82a5.7 5.7 0 0 0-5.7-5.7h-7.8a5.7 5.7 0 0 0-5.7 5.7v3.82m-12.48-3.82a4.24 4.24 0 0 1-8.25 1.95 3.65 3.65 0 0 1 0-1.8m-1.35 2.1h-4.12m15.67 0h-2.1m-16.72-30.67h17.24m-16.72-2.33h16.7m-113.4 2.33h75.93m20.63 15.74h16.5m0-6.9H540a1.34 1.34 0 0 0-1.35 1.33v4.4a1.34 1.34 0 0 0 1.33 1.35h59.84m-45.04-7.08v-7.12m0 14.02v-5.25m0 18.58v-11.76m43.92-8.47v-7.12m0 14.02v-5.25m0 18.58v-11.76m-3.2 14.16l-1.2 1.2a1.77 1.77 0 0 1-1.2.53l-61.63-.15a7.5 7.5 0 0 1-3.37-.82l-5-2.7m94.5-32.68h-17l-1 1.42m19.13-2.54l-2.25-1.88h-53.83m-2.55-.75l-2.32 2.18-35.98.6.07 1.5-1.95.4-.75-1.3-5.4.3-3.52-2.9-5.62.14m103-.24l-1.42-1.87m68.23 1.87h14.6m-16.85 5.25h13.86m49.26 24.97l4.12-.15m-59.22 2.77l4.65-.22m-49.03-31.42l1.05-1.27h3.22v-3.45l2.4-2.4h10.85M755 31.4a8.73 8.73 0 0 0-6.6-3.3c-1 .2-.9 1.8-.45 2.84l4.42 10.42a6.65 6.65 0 0 0 1 1.87c2.62 2.92 7.8.3 11.1 2.17a16.94 16.94 0 0 1 2.3 1.72 51 51 0 0 1 6.76 6.6c.75 1 5.62 8 1.42 6.6-8.55-2.77-17.77-5.7-25.34-10.5a7.5 7.5 0 0 0-3.8-1H679.7a1.7 1.7 0 0 0-1.65 1.5c-1.42 18.08-1.12 46.7-.82 76.1m42.2.02h50.15m-114.1 0h60.13m-45.28 0c-.67-30.3-.9-57.8.07-77.14a2.3 2.3 0 0 1 2.25-2.17l75.8.22a3.75 3.75 0 0 1 2.3.75l.83.6a4.28 4.28 0 0 0 2.62.9l8.32.22a17.74 17.74 0 0 1 5.9 1.2 32.47 32.47 0 0 1 5.47 3m-117.5-6.44h14.83M676.6 8.45c13.64 2.17 26 5.25 36.43 9.67a2.25 2.25 0 0 1 1.45 2.88 2.14 2.14 0 0 1-2.32 1.5l-39.2-.9a1.9 1.9 0 0 1-1.88-1.92v-.3a81.4 81.4 0 0 1 1.35-8.1 3.5 3.5 0 0 1 4-2.87zm-3.22 11.77a1.77 1.77 0 0 0 1.8-.6 5.3 5.3 0 0 0 .82-1.87 44.64 44.64 0 0 0 1.27-5.47 4.08 4.08 0 0 0 0-1.35 1.45 1.45 0 0 0-.82-1m-.3 11.77c-1.35 8.1-2.32 16.73-3.22 25.5M748 30.94a49.93 49.93 0 0 0-6.9-11.1m23.43 31.64l4.05 5.47m-8.18-11.02l2.93 3.97m-33.13 80.66h35.68m-107.95 0h65m-41.76-77.8h14.92M681 58.45h14.47m-14.7 5.76h14.1M680.57 70h13.8m-13.95 5.7h13.35m-13.57 5.76h12.97m-33.8-28.7h8.3m-8.47 5.7h8.4m-8.47 5.76h8.4M659.06 70h8.32m-8.48 5.7h8.4m-8.47 5.76h8.4m4.95-28.7h3.3m-3.38 5.7h3.22m-3.3 5.76h3.16m-3.3 5.78h3.15m-3.23 5.7h3.08m-3.15 5.76h3M683.65 95h23.6a3.44 3.44 0 0 1 3.46 3.43v21a3.44 3.44 0 0 1-3.4 3.45h-23.64a3.44 3.44 0 0 1-3.45-3.43v-21a3.5 3.5 0 0 1 3.46-3.45zm-1.58 15.32h27.2m32.25 49.7l27.13-1.5M684.77 25.24l48.58 2.32a10.8 10.8 0 0 1 9.37 6.52l3.07 7.35a2.34 2.34 0 0 1-1.28 3.06 1.43 1.43 0 0 1-1 .13l-60.12-1.2a3.6 3.6 0 0 1-3.5-3.67v-.07a111 111 0 0 1 1-11.48 3.88 3.88 0 0 1 3.87-3zM683.2 40.6c18-9.6 38.6-7.34 60.72 2.26m-53.22-4.28q24.17-5.4 42.72 4m-58.1-37.73l.9-2a1.57 1.57 0 0 1 2-.85 57.36 57.36 0 0 1 12.14 7m-73.28 160.92h-15.44M630.95 168.64h5.4v2.25h-5.4zm-89.95 0h5.4v2.25H541zM765.73 57.32c3.52 13.34 6 28.8 8 45.13" class="cls-3"/><circle cx="741.67" cy="155.08" r="1.72" class="cls-3"/><path d="M772.7 103.05l1.3-.05a1.17 1.17 0 0 1 1.2 1.12l.67 19.57a1.17 1.17 0 0 1-1.12 1.2l-1.35.05a1.17 1.17 0 0 1-1.2-1.12l-.67-19.64a1.2 1.2 0 0 1 1.17-1.16zm-.15 21.75l-1.27 1.56a33.73 33.73 0 0 1 8.25 11.92 11.7 11.7 0 0 1 1 4.8l-.4 26.92a6.93 6.93 0 0 1-6.53 6.75l-32.46 1.5-.82-12.67a5 5 0 0 1 .22-2.1l1-3.37h-.75a1.75 1.75 0 0 1-1.6-1c-4.5-9.65-10.86-15.57-17.9-18.35a30.8 30.8 0 0 0-27.07 2.85 3.75 3.75 0 0 1-2 .6H689l-.37 3.66a3.15 3.15 0 0 1-.9 1.95c-6.37 6.1-8.32 17.26-7.5 31.5h-9.63v-32.06l3.75-5h-19.42l1.35-96.55c-2.1-1.2-2.32-3.08-2.1-5.26C655.53 29.3 656.06 17 658.9 7a4.4 4.4 0 0 1 4.36-3.22c16.72.52 29.3 5.92 43 11.62 0 0 19.2.45 27.74 1.35m38.18 103.32h-20.54m-36.2-68.37l1.56 73.54a2.35 2.35 0 0 0 1.57 2.17c15.37 5 25.2 14.7 28 30.76a1.87 1.87 0 0 0 2 1.57m-31.87-49.4h6.6a2.92 2.92 0 0 1 2.93 2.9v3.6a2.92 2.92 0 0 1-2.92 2.93h-6.35M730.87 50c-.37.07-1.35.45-1.5.9a.66.66 0 0 0 .37.75c2.25 1 5.32 1.12 7.72 1.8 2.17.6 4.27 1 6.45 1.5 1 .22 1.8-.3 1.14-1.27a3.47 3.47 0 0 0-1.35-1 29.6 29.6 0 0 0-11-2.85 5 5 0 0 0-1.8.17zm30.36 39a2.7 2.7 0 0 0-1.57.82c-1 1.27 1.2 3.67 2.4 4.12a4.37 4.37 0 0 0 1.72.15 18.8 18.8 0 0 1 5 .6c.75.2 2 .65 2.77.3s.67-1 .52-1.9c-.52-2.54-4-3.66-6.67-4m-36.33-72.86l-3.14-3.15-.98-.1.75 3.08M734.4 16.24c.82-.67 2.77.15 3.52 1.5a2.3 2.3 0 0 1 0 2.4c-.75.67-2.7.07-3.52-1.27-.4-.87-.6-2.1 0-2.63zm33.96 64.7a9.6 9.6 0 0 1 .82 2.32 3.46 3.46 0 0 1-1.42 3.67 11 11 0 0 1-1 .67 4.8 4.8 0 0 0-1.55 1.4 1.67 1.67 0 0 0-.2 1 1.06 1.06 0 0 1-.9 1.2h-.2a1.14 1.14 0 0 1-1.14-1 4.5 4.5 0 0 1 .52-2.4 6.9 6.9 0 0 1 2.25-2.18l.82-.6a1.75 1.75 0 0 0 .52-.52 1.65 1.65 0 0 0 .15-1c-.06-.3-.14-.6-.2-.82M757.7 54.1l2 8.25c.9 3.52 1.58 7.12 2.4 10.72.53 2.47 1 4.95 1.66 7.5.3 1.2 1.42 3.07 3 2.17a2.25 2.25 0 0 0 .6-.6c1.2-1.57 2-2.4 1.5-4.5-1.72-7-2.62-14.1-4.87-21m-4.5-1.72c2 8 4 16.8 5.93 26.24m-.6 9.97a17.18 17.18 0 0 1 5.7 2.62m-7.27-2.55a2.32 2.32 0 0 0-1.35.68M716.1 80.2h20.1a8.17 8.17 0 0 1 4.57 1.34l6.37 4a5.9 5.9 0 0 0 3.37 1h10.14a7 7 0 0 0 3.45-1l2.9-1.84m-39.2-32.22H707a4.67 4.67 0 0 0-4.65 4.65v19.33A4.67 4.67 0 0 0 707 80.1h7.27m38.5-28.62H741m-23.1 30.28h18.37a5.25 5.25 0 0 1 2.77.82l7.35 4.57a8.25 8.25 0 0 0 4.2 1.2h12.5m-56.22-6.6h6.68m4.5 12.68h49.4m-47.3-14.23l-1.36-28.57m-7.12.07l.53 28.1m64.7 60.28l-7.87-3.52-.53 40.33m-21.73-17.1l1.12 17.84m-6.23-13.12l5.25-.22m21.14-37.64a22.83 22.83 0 0 1 4 11.1m-3.03 8.54l3.75.38m-4.13 4.12l-11.76.9m11.75 18l6.15-.16m5.55-27.66l-.82.22a1.75 1.75 0 0 0-1.35 1.65l-.07 7a1.12 1.12 0 0 0 1 1h1.2m-.03 3.4l-1.42 1.12a2.77 2.77 0 0 0-1 2.17l.07 5.85a1 1 0 0 0 1 1h1.4M777 141.88l-.3 21.6a3.44 3.44 0 0 1-2.55-3.38c0-3.67-.07-10.94 0-14.84.05-1.73 1.25-2.7 2.85-3.38zm-.25 12.15l-2.55 4.27m2.4-7.65l-2.47-.9m2.7-2.1l-2.63-1.72m.68 48.57H10.25" class="cls-3"/></g></g><g id="Иконка"><g id="Цвет"><path d="M104.32 113.17h-.22L25.24 99.75A1.5 1.5 0 0 1 24 98l13.38-77.78 81.7 14.1L105.76 112a1.4 1.4 0 0 1-1.43 1.17z" class="cls-4"/><path d="M38.06 21l80.3 13.8-13.28 77a.75.75 0 0 1-.67.6h-.13L25.4 99a.75.75 0 0 1-.6-.82L38.05 21m-1.2-1.72l-13.5 78.6a2.2 2.2 0 0 0 1.78 2.55L104 113.85a2.25 2.25 0 0 0 2.55-1.8l13.5-78.4zm56.68 72.38A9.58 9.58 0 0 1 88.06 90a20.43 20.43 0 0 1-6.45-8 31.6 31.6 0 0 1-2.7-13.42c0-3.37.17-6.67.3-9.9a87.36 87.36 0 0 0-.05-16c-.07-.52-.07-1-.15-1.65-.16-2.62-.46-4-1.8-4.65A1.86 1.86 0 1 1 78.75 33c3.45 1.72 3.67 5.17 3.82 7.72a8.3 8.3 0 0 0 .15 1.42 94.18 94.18 0 0 1 .07 16.57c-.16 3.17-.3 6.4-.3 9.7a29.3 29.3 0 0 0 2.3 11.83 15.82 15.82 0 0 0 5.2 6.55 5.32 5.32 0 0 0 3.3 1 10.26 10.26 0 0 0 5.55-1.87c3.82-2.75 4.27-9.3 4.27-11.22 0-1.35 0-2.62.07-4 .05-4.95.2-10 .05-15 0-.67 0-1.5-.07-2.32-.08-4.5-.16-10.64-2.86-13.12a1.86 1.86 0 0 1 2.4-2.85l.15.14c3.9 3.6 4 10.64 4 15.82a21.08 21.08 0 0 0 .1 2.25c.15 5.1.07 10.2-.07 15.15V71c0 1.2-.07 2.47-.07 3.67-.07 2.4-.6 10.42-5.85 14.17a11.08 11.08 0 0 1-7.47 2.82zm-15.3-57.88a1.06 1.06 0 0 1 .46.15c3.05 1.5 3.2 4.57 3.43 7a10.16 10.16 0 0 0 .15 1.5 92.5 92.5 0 0 1 .06 16.42c-.15 3.15-.37 6.45-.3 9.67a29.28 29.28 0 0 0 2.4 12.14 16.78 16.78 0 0 0 5.47 6.82 6.67 6.67 0 0 0 3.76 1.12 10.67 10.67 0 0 0 6-2c4.12-3 4.57-9.82 4.57-11.84 0-1.35 0-2.62.07-4 .07-4.95.22-10 .07-15 0-.67 0-1.5-.08-2.32-.08-4.65-.16-10.94-3.08-13.64a1.1 1.1 0 0 1 0-1.54 1.13 1.13 0 0 1 1.42-.07c3.67 3.35 3.75 10.25 3.75 15.27a21.08 21.08 0 0 0 .06 2.25c.14 5.1.06 10.2-.08 15.14 0 1.35-.07 2.62-.07 4-.06 2.25-.6 10-5.54 13.57a12.9 12.9 0 0 1-7.35 2.47 9.18 9.18 0 0 1-5-1.5 20.17 20.17 0 0 1-6.2-7.7 31.57 31.57 0 0 1-2.6-13.1c0-3.3.13-6.67.3-9.82a88.18 88.18 0 0 0-.1-16c-.06-.52-.06-1-.14-1.57-.15-2.7-.45-4.33-2.17-5.23a1.2 1.2 0 0 1-.53-1.5 1.3 1.3 0 0 1 1.2-.6m-.06-1.57a2.6 2.6 0 0 0-2.6 2.58 2.56 2.56 0 0 0 1.5 2.28c.9.45 1.2 1.2 1.35 4a13.5 13.5 0 0 0 .15 1.65 101.25 101.25 0 0 1 .07 15.84c-.15 3.22-.37 6.52-.3 9.9A33.2 33.2 0 0 0 81 82.24a21.24 21.24 0 0 0 6.67 8.3 10.23 10.23 0 0 0 5.92 1.8 14.4 14.4 0 0 0 8.15-2.7c5.55-4 6.07-12.3 6.15-14.77 0-1.2 0-2.47.08-3.67V71c.07-5 .22-10.12.07-15.22 0-.67 0-1.5-.07-2.25-.07-5.32-.15-12.6-4.27-16.34a2.6 2.6 0 0 0-3.7 3.63l.16.15c2.47 2.24 2.55 8.46 2.55 12.58a22.56 22.56 0 0 0 .08 2.32c.15 5 .07 10-.07 14.92 0 1.35-.06 2.62-.06 4s-.3 8-4 10.64a9.15 9.15 0 0 1-5.1 1.8 5.73 5.73 0 0 1-2.92-.82 15.38 15.38 0 0 1-4.94-6.22 27.83 27.83 0 0 1-2.25-11.54c0-3.22.16-6.45.3-9.6a95.9 95.9 0 0 0-.06-16.72 8.15 8.15 0 0 1 0-1.36c-.15-2.62-.45-6.52-4.27-8.4a2.25 2.25 0 0 0-1.16-.38z" class="cls-2"/><path d="M102.53 122.17a.57.57 0 0 0-.15-.3C90.08 107 83 79.2 78.16 56.5a69.8 69.8 0 0 1 10.72-4.35 157.84 157.84 0 0 1 10.95 20.1 3.26 3.26 0 0 0 3.9 1.8c10.12-2.93 18.6-5.18 25.86-6.9a.75.75 0 0 0 .5-.9 92.77 92.77 0 0 1-2.7-23.17l8.47-1.35c11.92 21.06 17.84 43.33 17.7 66v.27l.36 1.57A504.75 504.75 0 0 0 103 124.2z" class="cls-5"/><path d="M135.5 42.55c11.7 20.84 17.48 42.8 17.33 65.22a.67.67 0 0 0 .07.37l.22.82c-16.72 3.9-33.2 8.7-49.48 14.24l-.37-1.27a1.2 1.2 0 0 0-.3-.52C90.9 106.8 83.87 79.5 79 57a74.66 74.66 0 0 1 9.5-4 168.76 168.76 0 0 1 10.65 19.54 3.94 3.94 0 0 0 4.72 2.17c10-2.83 18.52-5.15 25.8-6.9a1.5 1.5 0 0 0 1.1-1.8 93.88 93.88 0 0 1-2.7-22.32l7.43-1.12m.75-1.72l-9.67 1.5a95.83 95.83 0 0 0 2.77 24c-7.87 1.95-16.57 4.27-25.86 7a2.5 2.5 0 0 1-3-1.35 167.72 167.72 0 0 0-11.33-20.74A74.72 74.72 0 0 0 77.27 56c5.84 27.74 13 52.32 24.5 66.27l.82 2.77a507.8 507.8 0 0 1 52.3-15l-.6-2.32c.15-24.14-6.37-46.33-18.07-66.94z" class="cls-2"/><path d="M100.2 112.2A27.4 27.4 0 0 1 116.77 93c4.27-1.65 9.07-2.25 12.9-4.8 3.06-2.1 5.24-5.25 7.26-8.4A165 165 0 0 0 146 63.47l-1.12-3.37a124.8 124.8 0 0 1-8.1 10.9c-4.12 4.95-8.85 10.27-15.22 11.17-2.92.37-5.85-.15-8.7.3-3.9.6-7.35 3-10.35 5.55a72.6 72.6 0 0 0-7 6.52c1.64 5.36 3.3 11.28 4.7 17.66zm.53 3.44a56.06 56.06 0 0 1 10.57-14.54 27.84 27.84 0 0 1 14.54-7.72c-10.94 4.8-18.44 16-24.2 27.6zm46.1-49.92a100.68 100.68 0 0 1-8.92 16.87c4.14-3.84 6.9-8.87 9.77-13.74zm-69.5-9.6a514.75 514.75 0 0 1 24.5 66.2c-11.6-15-18.34-36.6-24.5-66.2zm49.33-13.72c1.42 7 3.75 15.07 5.92 23.24l-3.15.75a107.55 107.55 0 0 1-2.77-24z" class="cls-6"/><path d="M157.62 95.7a.92.92 0 0 1-.75-.37L138.43 71a2.18 2.18 0 0 1-.22-2.32l4.9-10 10.9-2h.38a2.25 2.25 0 0 1 1.8.9L174.58 82a1 1 0 0 1-.16 1.35l-16.2 12.2a2.32 2.32 0 0 1-.6.15zm-9.22-32.46a2.55 2.55 0 1 0 2.6 2.55 2.3 2.3 0 0 0-.52-1.5 2.4 2.4 0 0 0-2.08-1.07z" class="cls-4"/><path d="M154.4 57.47a1.57 1.57 0 0 1 1.2.6L174 82.44a.22.22 0 0 1 0 .3L157.7 95h-.07c-.07 0-.15 0-.15-.07l-18.37-24.4A1.5 1.5 0 0 1 139 69l4.72-9.67 10.5-1.87h.2M148.32 69a3.33 3.33 0 0 0 3.3-3.3 3.08 3.08 0 0 0-.65-2 3.2 3.2 0 0 0-2.62-1.27 3.33 3.33 0 0 0-3.3 3.3 3.08 3.08 0 0 0 .67 1.95 3.2 3.2 0 0 0 2.63 1.32m6-13a1.27 1.27 0 0 0-.52.07l-11.23 2-5 10.35a3 3 0 0 0 .3 3.07l18.44 24.34a1.6 1.6 0 0 0 2.24.4l.08-.08 16.18-12.22a1.6 1.6 0 0 0 .4-2.23l-.08-.07-18.4-24.37a2.8 2.8 0 0 0-2.4-1.27zm-6 11.54a1.8 1.8 0 1 1 1.8-1.8 1.84 1.84 0 0 1-.67 1.42 2.25 2.25 0 0 1-1.13.36z" class="cls-2"/><path d="M50.88 22.6L38.96 91.2l-14.7 7.95 22.94 4.05 14.02-78.86-10.34-1.73z" class="cls-7"/></g><g id="Контур-2"><path d="M93.16 112l-68.22-11.72a1.9 1.9 0 0 1-1.57-2.17V98l13.5-78.6L51 21.8l10.2 1.7L120 33.64l-6.3 36.66m-66.27 32.6L60.85 25m-10.12-1.7l-11.7 67.76 7.27 11.54m-7.27-11.54l-14.1 7.72m79.32-25.86a20.35 20.35 0 0 1 .07-2.1c.07-4.95.22-10 .07-15 0-.67 0-1.5-.1-2.32-.06-4.65-.14-10.94-3.06-13.64a1.12 1.12 0 0 1 1.42-1.72c.07 0 .07.07.15.15 3.68 3.35 3.76 10.25 3.76 15.27a21.08 21.08 0 0 0 .07 2.25c.15 5.1.07 10.2-.07 15.14v1.5M80.26 54.7a71.27 71.27 0 0 0-.3-12c-.07-.52-.07-1-.15-1.57-.13-2.7-.43-4.35-2.15-5.25a1.12 1.12 0 1 1 .8-2.1h.18c3.07 1.5 3.22 4.57 3.45 7a10.16 10.16 0 0 0 .15 1.5 78.38 78.38 0 0 1 .3 11.1m2.07 32.05a19.12 19.12 0 0 1-2.24-3.75 29.5 29.5 0 0 1-2.47-10.12m64.46-14a135.4 135.4 0 0 0-8.1-16.56c-3.15.45-6.45 1-9.75 1.5a130.66 130.66 0 0 1 7.37 20.24 2.46 2.46 0 0 1-1.66 3.06h-.2c-9.44 2.17-18.6 4.5-28.55 7.42a2.47 2.47 0 0 1-3-1.42A158.7 158.7 0 0 0 89.18 51a100.92 100.92 0 0 0-11.84 4.9 169 169 0 0 1 24.3 66.2m52.54-14.33a118.52 118.52 0 0 0-.52-12.67m-50.6 26.62a378.74 378.74 0 0 1 49.54-13.64M93.68 97.2l7.95 25C90 108.3 83.26 83 77.33 56c2.56 5.4 5.18 11.1 6.9 15.9m44.97-5.8c-1.7-6.46-2.3-14.7-2.7-23.7.16.9 4.36 16.94 4.36 16.94m-29.23 62.9l.75 2.77a507 507 0 0 1 52.32-14.82l-.52-2.32m-51.05 11.9a112.5 112.5 0 0 1 13.57-10.2 30.8 30.8 0 0 1 8.92-4.34 31.22 31.22 0 0 1 9.15-.67 144.5 144.5 0 0 1 16.12 1.35m-18.46-53.6a11.92 11.92 0 0 1 6.67-.3c.17.07.4.07.47.3a.56.56 0 0 1-.07.37 31.3 31.3 0 0 1-4 5.85M87 69.4a23.15 23.15 0 0 1 4.43-1.4 1.22 1.22 0 0 1 1.42 2 43.84 43.84 0 0 1-3.75 7.8m3.3-1.44A5.17 5.17 0 0 1 93.6 75a1.64 1.64 0 0 1 .38-.22.57.57 0 0 1 .6.45 1.5 1.5 0 0 1 0 .82 35.46 35.46 0 0 1-2.7 8.7M150.8 105a14.1 14.1 0 0 1-4.72-2.7 16.72 16.72 0 0 1 5.1.67m-16.72-54.04A24.74 24.74 0 0 0 139.1 50a7.82 7.82 0 0 0-3.3-2.32m-48.64 19.1a11.54 11.54 0 0 1 3.22-.46 3.23 3.23 0 0 0 2-.45c.07-.07.07-.07.07-.22a.26.26 0 0 0-.07-.15c-.37-.3-.82-.6-1.27-.9a9.67 9.67 0 0 0-1.2-.67c-1.55-.67-3.43-.37-5.15-.6m63.88 38.97a45.52 45.52 0 0 1-2.17-5.25m-1.96 8.02a9 9 0 0 1-1.5-3.22m-34.25 13.27l-.07-3.9m31.4-48.05l2.47-5.1 11.24-2a3 3 0 0 1 2.9 1.12l18.37 24.34a1.66 1.66 0 0 1-.3 2.32l-16.18 12.2a1.66 1.66 0 0 1-2.33-.3L137.82 71.4a3 3 0 0 1-.3-3.06l1.8-3.67m7.73-.07a1.75 1.75 0 1 1 .22 2.46 1.66 1.66 0 0 1-.6-1m.33-3.26a3.27 3.27 0 1 1-1.57 4.34 1.5 1.5 0 0 1-.22-.82" class="cls-8"/><path d="M150 78.54a2.92 2.92 0 0 1 1.27-2.17 2.7 2.7 0 0 1 2.4-.6 4.34 4.34 0 0 1 2.25 1.65 4.42 4.42 0 0 1 1 2.7 3.22 3.22 0 0 1-3.6 2.78h-.07a4 4 0 0 1-2.25-1.73 3.94 3.94 0 0 1-1-2.63zm1.8-1.42c-1 .82-1 2 .07 3.52A3.3 3.3 0 0 0 153.5 82a1.9 1.9 0 0 0 1.65-.3 1.75 1.75 0 0 0 .75-1.5 3.75 3.75 0 0 0-.82-2c-1.08-1.6-2.25-1.9-3.3-1.1zm6.3-6.3l2.25 16.87-.82.6-2.25-16.9zm2.9 7.95a2.92 2.92 0 0 1 1.27-2.17 2.7 2.7 0 0 1 2.4-.6 4.34 4.34 0 0 1 2.25 1.65 4.42 4.42 0 0 1 1 2.7 3.22 3.22 0 0 1-3.6 2.78h-.07a4 4 0 0 1-2.2-1.74 3.4 3.4 0 0 1-1-2.64zm1.72-1.42c-1 .82-1 2 .07 3.52a3.3 3.3 0 0 0 1.63 1.35 1.87 1.87 0 0 0 1.65-.3 1.75 1.75 0 0 0 .74-1.5 3.75 3.75 0 0 0-.82-2c-1.15-1.6-2.2-1.9-3.32-1.08z" class="cls-2"/><path d="M148 64.37c.3.45.6.82.9 1.27a21.63 21.63 0 0 0-10.35-2.4c-4.2.07-8.55 1.42-12.52.15a9.5 9.5 0 0 1 2.4-1" class="cls-8"/></g></g></g></g></g></g></svg>