<svg xmlns="http://www.w3.org/2000/svg" width="20" height="16.56"><defs><style>.cls-1{fill:#7a7a7a;}</style></defs><title>tw</title><g id="Слой_2"><g id="Слой_1-2"><path id="_7a7a7aff" d="M13.64 0h.2A6.7 6.7 0 0 1 17 1.4L19.56.36a15.92 15.92 0 0 1-1.94 2.48c.8-.25 1.6-.46 2.38-.73v.18a24.4 24.4 0 0 0-2.06 2 12.26 12.26 0 0 1-6.3 11.08A12.32 12.32 0 0 1 0 14.86a12 12 0 0 0 6.1-1.8 5 5 0 0 1-4-2.9l2 .06A5.57 5.57 0 0 1 .55 5.9c.7.2 1.38.4 2.06.6A5 5 0 0 1 1.15.78 13.18 13.18 0 0 0 9.7 5.26 4.46 4.46 0 0 1 13.65 0z" class="cls-1"/></g></g></svg>