<svg xmlns="http://www.w3.org/2000/svg" width="24" height="13.71"><defs><style>.cls-1{fill:#7a7a7a;}</style></defs><title>vk</title><g id="Слой_2"><g id="Слой_1-2"><path id="_7a7a7aff" d="M7.84.52c1.93-.4 4.12-.92 6 0 .6 2.14 0 4.46.52 6.65 2.06-1.64 3.2-4.07 4.22-6.42 1.8 0 3.6-.05 5.42 0v1c-1.1 2.23-2.8 4.1-4.16 6.16A35.8 35.8 0 0 1 24 12.5v1c-1.78.07-3.66.45-5.4-.06a42.4 42.4 0 0 1-3.77-3.34 24 24 0 0 0-1 3.47 8.78 8.78 0 0 1-7.42-2.12C3.5 8.65 1.67 5 0 1.33v-.6a25 25 0 0 1 4.45 0c1.85 1.7 1.92 5 4.43 6.16C9.8 4.82 10 1.84 7.84.5z" class="cls-1"/></g></g></svg>