<svg xmlns="http://www.w3.org/2000/svg" width="24" height="16.5"><defs><style>.cls-1{fill:#444;opacity:0.56;isolation:isolate;}.cls-2{fill:#7a7a7a;}</style></defs><title>yt</title><g id="Слой_2"><g id="Слой_1-2"><path id="_44444490" d="M7.45 0h13.1l1.83.8A133.28 133.28 0 0 0 6.7.1zM0 3.37q.42-1 .92-1.9a27.6 27.6 0 0 0 0 13.43c-.3-.45-.6-.9-.92-1.32zm23.1-1.8c.3.43.6.86.9 1.3V13.4a17.58 17.58 0 0 1-.93 1.6 26.72 26.72 0 0 0 .03-13.4zM1.5 15.6a69.7 69.7 0 0 0 21 0 5.52 5.52 0 0 1-2.07.87H3.2c-.57-.24-1.13-.54-1.7-.87z" class="cls-1"/><path id="_7a7a7aff" d="M.92 1.47C2.47-.05 4.72.27 6.7.1a133.28 133.28 0 0 1 15.68.7l.72.78a26.72 26.72 0 0 1 0 13.44l-.58.6a69.7 69.7 0 0 1-21 0l-.58-.7a27.6 27.6 0 0 1 0-13.43m7.9 2.63q0 3.9 0 7.78c.92-.4 1.8-.85 2.72-1.3 1.66-.93 3.4-1.7 5-2.63C14 6.83 11.48 5.32 8.84 4.14z" class="cls-2"/></g></g></svg>